<svg width="300" height="300" viewBox="0 0 300 300" fill="none" xmlns="http://www.w3.org/2000/svg">
<g clip-path="url(#clip0_1_2)">
<g filter="url(#filter0_f_1_2)">
<path d="M17 119C17 62.1147 63.1147 16 120 16H179C235.885 16 282 62.1147 282 119V181C282 237.885 235.885 284 179 284H120C63.1147 284 17 237.885 17 181V119Z" fill="#050C01"/>
<path d="M179 14.5H120C62.2862 14.5 15.5 61.2862 15.5 119V181C15.5 238.714 62.2863 285.5 120 285.5H179C236.714 285.5 283.5 238.714 283.5 181V119C283.5 61.2862 236.714 14.5 179 14.5Z" stroke="#72E816" stroke-width="3"/>
</g>
<path d="M179 14.5H120C62.2862 14.5 15.5 61.2862 15.5 119V181C15.5 238.714 62.2863 285.5 120 285.5H179C236.714 285.5 283.5 238.714 283.5 181V119C283.5 61.2862 236.714 14.5 179 14.5Z" fill="#050C01" stroke="#72E816" stroke-width="3"/>
<path d="M84.25 222.75C79.0833 222.75 75.1667 221.417 72.5 218.75C69.8333 216.25 68.5 212.917 68.5 208.75C68.5 204.25 69.75 200.083 72.25 196.25C74.9167 192.25 78.3333 189.083 82.5 186.75C86.6667 184.417 91 183.25 95.5 183.25C97.5 183.25 99.5 183.5 101.5 184C103.667 184.333 105.75 184.917 107.75 185.75V73.25L201.25 49.25V176.5C201.25 183.667 199.667 190 196.5 195.5C193.5 200.833 189.5 205.083 184.5 208.25C179.667 211.25 174.333 212.75 168.5 212.75C163.333 212.75 159.417 211.5 156.75 209C154.083 206.333 152.75 202.917 152.75 198.75C152.75 194.25 154 190.083 156.5 186.25C159.167 182.25 162.583 179.083 166.75 176.75C170.917 174.417 175.25 173.25 179.75 173.25C181.75 173.25 183.75 173.5 185.75 174C187.917 174.333 190 174.917 192 175.75V63.75L196.25 67.25L113.25 90.25L117 84.25V186.5C117 193.667 115.417 200 112.25 205.5C109.25 210.833 105.25 215 100.25 218C95.4167 221.167 90.0833 222.75 84.25 222.75Z" fill="#A2EF65"/>
</g>
<defs>
<filter id="filter0_f_1_2" x="4" y="3" width="291" height="294" filterUnits="userSpaceOnUse" color-interpolation-filters="sRGB">
<feFlood flood-opacity="0" result="BackgroundImageFix"/>
<feBlend mode="normal" in="SourceGraphic" in2="BackgroundImageFix" result="shape"/>
<feGaussianBlur stdDeviation="5" result="effect1_foregroundBlur_1_2"/>
</filter>
<clipPath id="clip0_1_2">
<rect width="300" height="300" fill="white"/>
</clipPath>
</defs>
</svg>
